<svg width="40" height="40" viewBox="0 0 40 40" fill="none" xmlns="http://www.w3.org/2000/svg">
<rect width="40" height="40" rx="20" fill="#093B71"/>
<path d="M27 18.2001C27 22.6938 22.1534 27.3739 20.5259 28.8193C20.3743 28.9366 20.1897 29 20 29C19.8103 29 19.6257 28.9366 19.4741 28.8193C17.8466 27.3739 13 22.6938 13 18.2001C13 16.2905 13.7375 14.4591 15.0503 13.1089C16.363 11.7586 18.1435 11 20 11C21.8565 11 23.637 11.7586 24.9497 13.1089C26.2625 14.4591 27 16.2905 27 18.2001Z" stroke="white" stroke-width="2" stroke-linecap="round" stroke-linejoin="round"/>
<path d="M20 20.9001C21.4497 20.9001 22.625 19.6913 22.625 18.2001C22.625 16.7089 21.4497 15.5001 20 15.5001C18.5503 15.5001 17.375 16.7089 17.375 18.2001C17.375 19.6913 18.5503 20.9001 20 20.9001Z" stroke="white" stroke-width="2" stroke-linecap="round" stroke-linejoin="round"/>
</svg>
