<svg width="230" height="32" viewBox="0 0 230 32" fill="none" xmlns="http://www.w3.org/2000/svg">
<g opacity="0.7">
<path d="M43.7591 11.1608H48.3933V28.7307H53.1292V11.1608H57.7574V6.94956H43.7591V11.1608Z" fill="white"/>
<path d="M34.8553 22.0035C34.8553 23.7587 33.8268 24.8549 32.2064 24.8549C30.5859 24.8549 29.5574 23.7587 29.5574 22.0035V6.94956H24.8275V22.0694C24.8275 26.3825 27.8053 29.0662 32.2064 29.0662C36.6074 29.0662 39.5852 26.3825 39.5852 22.0694V6.94956H34.8553V22.0035Z" fill="white"/>
<path d="M70.0096 15.8034L67.2949 14.7731C65.8059 14.21 65.5428 13.2515 65.5428 12.6165C65.5428 11.4244 66.4039 10.5259 67.9227 10.5259C69.4416 10.5259 70.4043 11.5203 70.4043 13.0778V13.6768H74.8412V13.1796C74.8412 9.13608 72.0606 6.61412 67.9227 6.61412C63.7848 6.61412 61.07 9.59734 61.07 12.91C61.07 16.2227 62.7264 17.9839 65.8657 19.176L68.9094 20.3381C70.2667 20.8713 70.7929 21.5961 70.7929 22.6924C70.7929 24.2199 69.8003 25.1125 68.0124 25.1125C66.2245 25.1125 65.1362 24.2858 65.1362 22.5246V21.7279H60.6694V22.4887C60.6694 26.5322 63.7788 29.0542 68.0184 29.0542C72.6526 29.0542 75.3016 26.2387 75.3016 22.2251C75.3016 18.2115 72.7184 16.8218 70.0096 15.7914" fill="white"/>
<path d="M2.05962 13.8704L0.00469122 15.9291L2.05962 17.9877L4.11455 15.9291L2.05962 13.8704Z" fill="white"/>
<path d="M8.71833 16.4204L10.285 17.9899L12.342 15.9292L10.2491 13.8325C9.40599 12.9879 8.03665 12.9879 7.19352 13.8325L0 21.033L2.057 23.0937L8.71833 16.4204Z" fill="white"/>
<path d="M8.228 25.1488L6.17101 23.0881L4.60433 24.6576L3.03766 23.0881L0.980664 25.1488L3.07354 27.2455C3.91667 28.0901 5.28601 28.0901 6.12915 27.2455L8.228 25.1428V25.1488Z" fill="white"/>
<path d="M8.71832 28.7787L7.15165 27.2092L5.09464 29.2699L7.18753 31.3665C8.03066 32.2112 9.4 32.2112 10.2431 31.3665L12.336 29.2699L10.279 27.2092L8.71234 28.7787H8.71832Z" fill="white"/>
<path d="M12.8264 24.6576L11.2597 23.0881L9.20269 25.1488L11.3015 27.2455C12.1447 28.0901 13.514 28.0901 14.3571 27.2455L16.45 25.1488L14.393 23.0881L12.8264 24.6576Z" fill="white"/>
<path d="M15.3731 18.9685L13.3182 21.0271L15.3731 23.0858L17.4281 21.0271L15.3731 18.9685Z" fill="white"/>
<path d="M8.71832 20.5418L7.15165 18.9723L5.09464 21.033L7.18753 23.1296C8.03066 23.9743 9.39999 23.9743 10.2431 23.1296L17.4307 15.9292L15.3737 13.8685L8.71234 20.5418H8.71832Z" fill="white"/>
<path d="M8.71249 0.000397997L5.96783 2.74899L8.71153 5.49854L11.4561 2.74995L8.71249 0.000397997Z" fill="white"/>
<path d="M5.29198 9.00459H7.2593V12.9043C8.15027 12.3772 9.27444 12.3772 10.1654 12.9043V9.00459H12.1327L13.4183 10.2925L16.163 7.54293L13.4183 4.79333L12.1327 6.08127H5.29198L4.00636 4.79333L1.26768 7.54293L4.00636 10.2925L5.29198 9.00459Z" fill="white"/>
<path d="M88.6104 22.6665L93.211 15.799L88.8026 9.33326H92.9227L95.181 12.9993L97.5593 9.33326H101.523L97.199 15.6483L101.92 22.6665H97.7755L95.181 18.536L92.5623 22.6665H88.6104Z" fill="white"/>
<path d="M131.531 0.106673C131.531 0.0355577 131.567 0 131.639 0C132.185 0.0533366 132.787 0.161121 133.333 0.267794C135.41 0.750046 137.16 1.71455 138.635 3.21575C140.548 5.19921 141.533 7.61158 141.533 10.3451C141.533 16.8844 141.533 23.4781 141.533 30.0174C141.533 30.6608 141.533 31.2508 141.533 31.8931C141.533 31.9642 141.497 31.9998 141.424 31.9998C140.878 31.9464 140.385 31.8931 139.839 31.7853C137.324 31.1953 135.247 29.9096 133.662 27.8728C132.241 26.0505 131.531 23.9604 131.531 21.708C131.531 18.2233 131.531 14.6865 131.531 11.2018C131.531 7.50269 131.531 3.80579 131.531 0.106673Z" fill="white"/>
<path d="M122.162 23.7247C125.99 23.7247 129.094 20.6811 129.094 16.9265C129.094 13.172 125.99 10.1283 122.162 10.1283C118.333 10.1283 115.229 13.172 115.229 16.9265C115.229 20.6811 118.333 23.7247 122.162 23.7247Z" fill="white"/>
<path d="M156.187 20.4626C152.942 20.4626 150.386 18.1158 150.386 14.2223C150.386 10.3287 152.978 7.98187 156.187 7.98187C159.397 7.98187 161.989 10.3287 161.989 14.2223C161.989 18.1158 159.324 20.4626 156.187 20.4626ZM156.133 9.49308C154.465 9.49308 153.214 10.702 153.214 14.2223C153.214 17.7425 154.447 18.9514 156.242 18.9514C157.928 18.9514 159.161 17.6536 159.161 14.2223C159.161 10.5598 157.837 9.49308 156.133 9.49308Z" fill="white"/>
<path d="M167.54 20.4636C167.214 20.4636 166.833 20.428 166.398 20.3214V22.7215L167.831 22.9171V23.006C167.831 23.3793 167.722 23.7882 167.54 24.0194H162.827L162.99 22.9171L164.078 22.7215V13.3343L163.751 13.192C163.244 12.9965 163.117 12.8898 163.008 12.712V12.0008L166.126 11.4141L166.289 12.552H166.38C167.142 11.6986 167.867 11.4497 168.719 11.4497C170.677 11.4497 172.236 12.872 172.236 15.61C172.236 18.3479 170.224 20.4636 167.54 20.4636ZM167.776 13.1742C167.287 13.1742 166.815 13.3165 166.398 13.5832V18.7746C166.815 18.8813 167.577 18.9879 168.175 18.9879C168.683 18.9879 169.752 17.8501 169.752 15.8055C169.752 14.0454 169.027 13.1742 167.776 13.1742Z" fill="white"/>
<path d="M180.911 15.8589H175.689C175.689 17.6724 176.614 18.7036 178.481 18.7036C179.406 18.7036 180.167 18.4369 180.693 17.9924L180.856 18.7925C180.294 19.8236 179.297 20.4637 177.593 20.4637C175.127 20.4637 173.241 18.7213 173.241 16.0723C173.241 13.4232 175.127 11.4498 177.448 11.4498C179.551 11.4498 181.001 12.6054 181.001 14.8278C181.001 15.0767 180.947 15.5567 180.911 15.8589ZM178.934 14.49C178.934 13.3166 178.245 12.7121 177.176 12.7121C177.031 12.7121 176.759 12.7476 176.632 12.7832C176.396 12.8365 175.816 13.6366 175.725 14.9344L178.934 14.7744V14.49Z" fill="white"/>
<path d="M192.03 19.2724C192.03 19.6458 191.921 20.0547 191.74 20.2858H187.353L187.516 19.1835L188.495 18.9879V13.7254C188.114 13.4054 187.606 13.2631 187.099 13.2631C186.537 13.2631 185.938 13.4232 185.431 13.6898V18.9879L186.5 19.1835V19.2724C186.5 19.6458 186.392 20.0547 186.228 20.2858H181.75L181.932 19.1835L183.128 18.9879V13.3343L182.784 13.192C182.294 12.9965 182.167 12.8898 182.058 12.712V12.0008L185.159 11.4141L185.34 12.6231H185.431C186.464 11.7164 187.226 11.4497 188.187 11.4497C189.873 11.4497 190.816 12.3031 190.816 13.8498V18.9879L192.03 19.1835V19.2724Z" fill="white"/>
<path d="M197.577 20.285L197.758 19.0938L199.064 18.8982V9.5643L197.595 9.36873V9.20872C197.595 8.83537 197.704 8.40867 197.867 8.15977H203.216L203.052 9.36873L201.62 9.5643V18.9693L204.739 18.8093L205.283 16.3914H205.464C205.863 16.3914 206.388 16.4981 206.679 16.6759V20.285H197.577Z" fill="white"/>
<path d="M215.77 19.3075C215.57 20.0364 215.099 20.4631 214.211 20.4631C213.449 20.4631 212.978 20.1964 212.579 19.6275C211.437 20.2853 210.857 20.4631 210.131 20.4631C208.681 20.4631 207.647 19.752 207.647 18.2763C207.647 16.9251 208.391 16.1962 210.149 15.9473L212.398 15.6273V13.4049C210.911 13.636 209.986 13.7072 209.551 13.7072C208.608 13.7072 208.246 13.4405 208.246 12.6938C208.246 12.3737 208.355 11.9115 208.5 11.627H213.794C214.464 12.2315 214.682 12.9782 214.682 14.0094C214.682 14.5961 214.591 18.7741 214.591 18.7741C214.791 18.9164 215.063 18.9875 215.353 18.9875C215.48 18.9875 215.643 18.9697 215.77 18.9341V19.3075ZM212.398 16.5518L210.168 17.1207C210.004 17.3518 209.896 17.6718 209.896 17.9919C209.896 18.6497 210.222 19.1119 211.074 19.1119C211.473 19.1119 212.017 19.0053 212.398 18.9164V16.5518Z" fill="white"/>
<path d="M229.819 12.7293L229.184 12.9249L226.483 20.2853L224.724 20.4631L222.875 14.9872H222.784L220.971 20.2853L219.212 20.4631L216.529 12.9249L215.768 12.7293V12.6404C215.768 12.2848 215.876 11.8582 216.04 11.627H220.101L219.956 12.7293L219.013 12.9249L220.463 17.6718H220.554L222.113 12.9249L221.098 12.7293V12.6404C221.098 12.2848 221.207 11.8582 221.37 11.627H225.431L225.25 12.7293L224.38 12.9249L225.921 17.6718H226.011L227.48 12.9249L226.392 12.7293V12.6404C226.392 12.2848 226.501 11.8582 226.682 11.627H230L229.819 12.7293Z" fill="white"/>
</g>
</svg>
